<?xml version="1.0" encoding="utf-8"?>
<!-- Generator: Adobe Illustrator 17.0.0, SVG Export Plug-In . SVG Version: 6.00 Build 0)  -->
<!DOCTYPE svg PUBLIC "-//W3C//DTD SVG 1.1//EN" "http://www.w3.org/Graphics/SVG/1.1/DTD/svg11.dtd">
<svg version="1.1" id="Layer_1" xmlns="http://www.w3.org/2000/svg"  x="0px" y="0px"
	 width="560.066px" height="94.053px" viewBox="0 0 560.066 94.053" enable-background="new 0 0 560.066 94.053"
	 xml:space="preserve">
<g id="XMLID_95_">
	<path id="XMLID_118_" fill="#FFCC04" d="M41.994,59.046H13.056c-0.65,0-0.974-0.325-0.974-0.975V2.339
		c0-0.325-0.147-0.634-0.439-0.926c-0.292-0.293-0.601-0.438-0.926-0.438H1.461c-0.39,0-0.731,0.146-1.023,0.438
		C0.146,1.705,0,2.014,0,2.339V68.4c0,0.909,0.487,1.365,1.461,1.365h40.533c0.909,0,1.364-0.455,1.364-1.365v-7.99
		c0-0.325-0.13-0.633-0.39-0.926C42.709,59.192,42.384,59.046,41.994,59.046z"/>
	<path id="XMLID_117_" fill="#FFCC04" d="M64.879,21.533H55.72c-0.909,0-1.364,0.455-1.364,1.364V68.4
		c0,0.909,0.455,1.365,1.364,1.365h9.159c0.909,0,1.364-0.455,1.364-1.365V22.898C66.243,21.988,65.788,21.533,64.879,21.533z"/>
	<path id="XMLID_116_" fill="#FFCC04" d="M60.299,2.339c-1.689,0-3.151,0.601-4.385,1.802c-1.234,1.202-1.851,2.68-1.851,4.433
		c0,1.754,0.601,3.215,1.802,4.385c1.202,1.169,2.68,1.753,4.434,1.753c1.754,0,3.231-0.585,4.433-1.753
		c1.202-1.17,1.803-2.631,1.803-4.385c0-1.754-0.617-3.231-1.851-4.433C63.45,2.94,61.988,2.339,60.299,2.339z"/>
	<path id="XMLID_113_" fill="#FFCC04" d="M122.732,0.975h-9.256c-0.91,0-1.364,0.455-1.364,1.364v22.703
		c0,0.324-0.13,0.536-0.39,0.633c-0.26,0.097-0.487,0.049-0.682-0.146c-3.508-3.183-7.665-4.775-12.472-4.775
		c-5.521,0-10.198,2.062-14.031,6.188c-3.832,4.125-5.748,9.564-5.748,16.32v4.872c0,6.626,1.819,12.017,5.456,16.175
		c3.638,4.157,8.347,6.236,14.129,6.236c5.391,0,9.841-1.852,13.348-5.554c0.195-0.195,0.39-0.26,0.585-0.195
		c0.195,0.065,0.325,0.195,0.39,0.39l0.877,3.703c0.065,0.585,0.487,0.877,1.266,0.877h7.892c0.325,0,0.634-0.13,0.926-0.39
		c0.293-0.261,0.438-0.585,0.438-0.975V2.339c0-0.39-0.146-0.714-0.438-0.974C123.366,1.105,123.057,0.975,122.732,0.975z
		 M112.112,54.564c0,1.105-0.422,1.982-1.267,2.632c-2.663,2.273-5.651,3.41-8.963,3.41c-3.508,0-6.285-1.152-8.331-3.459
		c-2.046-2.306-3.069-5.408-3.069-9.305v-4.287c0-3.898,1.022-6.999,3.069-9.305c2.046-2.306,4.823-3.459,8.331-3.459
		c3.573,0,6.56,1.104,8.963,3.314c0.845,0.714,1.267,1.623,1.267,2.728V54.564z"/>
	<path id="XMLID_112_" fill="#FFCC04" d="M166.328,45.26c-2.598-1.916-6.236-3.362-10.913-4.336
		c-3.053-0.65-5.196-1.348-6.431-2.095c-1.233-0.747-1.851-1.9-1.851-3.459v-0.39c0-1.169,0.503-2.192,1.51-3.069
		c1.007-0.877,2.355-1.315,4.043-1.315c2.144,0,4.384,0.844,6.724,2.533c0.779,0.585,1.461,0.52,2.046-0.195l4.287-5.651
		c0.584-0.845,0.519-1.494-0.195-1.949c-4.092-3.183-8.542-4.775-13.349-4.775c-4.807,0-8.818,1.364-12.033,4.093
		c-3.215,2.728-4.823,6.17-4.823,10.328v0.39c0,4.287,1.283,7.438,3.849,9.451c2.566,2.013,6.187,3.508,10.864,4.482
		c3.183,0.715,5.392,1.478,6.625,2.29c1.234,0.812,1.851,2.062,1.851,3.751v0.293c0,1.494-0.585,2.744-1.754,3.751
		c-1.169,1.007-2.955,1.51-5.359,1.51c-3.507,0-6.918-1.266-10.231-3.8c-0.779-0.52-1.429-0.423-1.949,0.292l-4.482,5.847
		c-0.585,0.714-0.52,1.364,0.195,1.948c5.002,3.767,10.653,5.651,16.954,5.651c5.716,0,10.198-1.494,13.446-4.482
		c3.247-2.988,4.871-6.691,4.871-11.108v-0.39C170.225,50.375,168.926,47.175,166.328,45.26z"/>
	<path id="XMLID_111_" fill="#FFCC04" d="M210.042,45.698c-0.39-0.455-0.325-0.877,0.195-1.267
		c6.301-4.676,10.036-11.172,11.205-19.487l0.293-1.949c0.065-0.454-0.049-0.811-0.34-1.072c-0.293-0.259-0.633-0.39-1.023-0.39
		h-9.549c-0.844,0-1.299,0.422-1.364,1.267l-0.097,1.559c-0.455,4.547-2.013,8.347-4.677,11.4
		c-2.664,3.053-6.171,4.904-10.523,5.554c-0.779,0.13-1.169-0.195-1.169-0.975v-38c0-0.909-0.455-1.364-1.364-1.364h-9.159
		c-0.909,0-1.364,0.455-1.364,1.364V68.4c0,0.909,0.454,1.365,1.364,1.365h9.159c0.909,0,1.364-0.455,1.364-1.365V51.446
		c0-0.65,0.292-0.974,0.877-0.974c1.819-0.065,3.508-0.357,5.067-0.877c0.649-0.195,1.137,0,1.461,0.585l11.011,18.805
		c0.195,0.519,0.617,0.78,1.266,0.78h10.231c0.584,0,1.023-0.244,1.315-0.731c0.293-0.488,0.276-0.958-0.049-1.413L210.042,45.698z"
		/>
	<path id="XMLID_110_" fill="#FFCC04" d="M249.577,16.272c0.844,0.325,1.624,0.293,2.338-0.097l14.518-9.452
		c0.455-0.26,0.665-0.65,0.634-1.17c-0.033-0.519-0.276-0.909-0.731-1.169l-5.554-3.215c-0.974-0.455-1.753-0.39-2.338,0.195
		l-12.862,10.328c-0.39,0.325-0.568,0.715-0.535,1.169c0.032,0.454,0.243,0.812,0.633,1.072L249.577,16.272z"/>
	<path id="XMLID_107_" fill="#FFCC04" d="M274.715,21.533h-7.6c-0.844,0-1.364,0.357-1.559,1.073l-0.78,3.41
		c-0.065,0.194-0.211,0.308-0.438,0.341c-0.227,0.032-0.405-0.016-0.536-0.147c-3.767-3.637-8.184-5.456-13.251-5.456
		c-5.522,0-10.198,2.062-14.031,6.188c-3.832,4.125-5.749,9.564-5.749,16.32v4.872c0,6.626,1.802,12.017,5.408,16.175
		c3.605,4.157,8.298,6.236,14.079,6.236c4.807,0,9.062-1.754,12.764-5.262c0.195-0.195,0.422-0.243,0.682-0.146
		c0.26,0.097,0.39,0.277,0.39,0.536V68.4c0,0.909,0.455,1.365,1.364,1.365h9.256c0.325,0,0.633-0.13,0.926-0.39
		c0.293-0.261,0.438-0.585,0.438-0.975V22.898c0-0.39-0.146-0.714-0.438-0.975C275.348,21.664,275.04,21.533,274.715,21.533z
		 M264.095,54.564c0,1.105-0.422,1.982-1.267,2.632c-2.663,2.273-5.652,3.41-8.964,3.41c-3.507,0-6.285-1.152-8.331-3.459
		c-2.046-2.306-3.069-5.408-3.069-9.305v-4.287c0-3.898,1.022-6.999,3.069-9.305c2.046-2.306,4.823-3.459,8.331-3.459
		c3.443,0,6.431,1.104,8.964,3.314c0.844,0.714,1.267,1.623,1.267,2.728V54.564z"/>
	<path id="XMLID_106_" fill="#FFCC04" d="M314.887,29.426c-5.392-1.299-9.126-2.614-11.205-3.946
		c-2.079-1.332-3.118-3.296-3.118-5.894v-0.293c0-2.274,0.909-4.141,2.728-5.602c1.818-1.462,4.352-2.193,7.6-2.193
		c3.767,0,7.275,1.267,10.523,3.8c0.714,0.78,1.396,0.714,2.046-0.195l5.359-7.015c0.52-0.714,0.422-1.364-0.292-1.948
		C323.201,2.046,317.323,0,310.893,0c-6.691,0-12.115,1.787-16.272,5.36c-4.157,3.573-6.236,8.249-6.236,14.031v0.39
		c0,2.662,0.39,5.034,1.169,7.112c0.78,2.079,1.689,3.735,2.728,4.969c1.04,1.234,2.485,2.339,4.336,3.313
		c1.851,0.975,3.443,1.673,4.774,2.095c1.332,0.422,3.102,0.894,5.31,1.413l5.553,1.462c1.235,0.324,2.631,0.795,4.19,1.412
		c1.559,0.617,2.663,1.251,3.313,1.9c0.649,0.65,1.218,1.478,1.705,2.485c0.488,1.007,0.731,2.192,0.731,3.556v0.39
		c0,2.924-1.088,5.245-3.264,6.967c-2.176,1.721-5.44,2.582-9.792,2.582c-2.793,0-5.586-0.568-8.38-1.705
		c-2.793-1.137-5.066-2.42-6.82-3.849c-0.325-0.26-0.682-0.373-1.072-0.34c-0.39,0.032-0.682,0.179-0.877,0.439l-5.456,7.209
		c-0.649,0.78-0.552,1.462,0.293,2.047c2.728,2.078,6.089,3.848,10.085,5.309c3.994,1.462,8.071,2.192,12.228,2.192
		c7.925,0,14.16-1.997,18.708-5.992c4.547-3.995,6.821-9.11,6.821-15.346v-0.39c0-5.522-1.624-9.792-4.872-12.813
		C326.547,33.177,321.577,30.92,314.887,29.426z"/>
	<path id="XMLID_105_" fill="#FFCC04" d="M363.26,4.385l-5.553-3.215c-0.974-0.455-1.754-0.39-2.339,0.195l-12.861,10.328
		c-0.39,0.325-0.568,0.715-0.536,1.169c0.033,0.454,0.243,0.812,0.633,1.072l3.897,2.339c0.844,0.325,1.624,0.293,2.338-0.097
		l14.518-9.452c0.455-0.26,0.666-0.65,0.633-1.17C363.959,5.035,363.715,4.645,363.26,4.385z"/>
	<path id="XMLID_104_" fill="#FFCC04" d="M357.512,21.533h-9.159c-0.325,0-0.633,0.131-0.926,0.39
		c-0.293,0.26-0.439,0.585-0.439,0.975V68.4c0,0.909,0.488,1.365,1.462,1.365h9.062c0.974,0,1.462-0.455,1.462-1.365V22.898
		C358.973,21.988,358.486,21.533,357.512,21.533z"/>
	<path id="XMLID_103_" fill="#FFCC04" d="M384.742,0.975h-9.159c-0.91,0-1.364,0.455-1.364,1.364V68.4
		c0,0.909,0.454,1.365,1.364,1.365h9.159c0.909,0,1.364-0.455,1.364-1.365V2.339C386.107,1.43,385.652,0.975,384.742,0.975z"/>
	<path id="XMLID_100_" fill="#FFCC04" d="M442.596,21.534h-7.6c-0.844,0-1.364,0.357-1.559,1.073l-0.78,3.41
		c-0.065,0.194-0.211,0.308-0.438,0.341c-0.227,0.032-0.405-0.016-0.536-0.147c-3.768-3.637-8.185-5.456-13.251-5.456
		c-5.522,0-10.198,2.062-14.031,6.188c-3.832,4.125-5.749,9.564-5.749,16.32v4.872c0,6.626,1.802,12.017,5.408,16.175
		c3.606,4.157,8.298,6.236,14.079,6.236c4.807,0,9.062-1.754,12.764-5.262c0.195-0.195,0.422-0.243,0.681-0.146
		c0.26,0.097,0.39,0.277,0.39,0.536V68.4c0,0.909,0.455,1.365,1.364,1.365h9.256c0.325,0,0.633-0.13,0.926-0.39
		c0.292-0.261,0.438-0.585,0.438-0.975V22.898c0-0.39-0.146-0.714-0.438-0.975C443.229,21.664,442.921,21.534,442.596,21.534z
		 M431.976,54.564c0,1.105-0.422,1.982-1.267,2.632c-2.663,2.273-5.652,3.41-8.964,3.41c-3.507,0-6.284-1.152-8.331-3.459
		c-2.046-2.306-3.069-5.408-3.069-9.305v-4.287c0-3.898,1.023-6.999,3.069-9.305c2.046-2.306,4.823-3.459,8.331-3.459
		c3.443,0,6.431,1.104,8.964,3.314c0.844,0.714,1.267,1.623,1.267,2.728V54.564z"/>
	<path id="XMLID_99_" fill="#FFCC04" d="M460.23,56.984c-1.884,0-3.492,0.649-4.823,1.948c-1.332,1.299-1.997,2.891-1.997,4.775
		c0,1.884,0.666,3.459,1.997,4.726c1.332,1.266,2.939,1.9,4.823,1.9c1.883,0,3.475-0.634,4.774-1.9
		c1.299-1.267,1.949-2.842,1.949-4.726c0-1.884-0.65-3.476-1.949-4.775C463.705,57.633,462.113,56.984,460.23,56.984z"/>
	<path id="XMLID_98_" fill="#FFCC04" d="M497.689,20.64c-6.756,0-12.439,2.209-17.051,6.626c-4.612,4.416-6.918,9.71-6.918,15.882
		v5.359c0,6.235,2.306,11.546,6.918,15.93c4.612,4.385,10.296,6.577,17.051,6.577c4.742,0,9.061-1.169,12.959-3.508
		c0.909-0.455,1.104-1.137,0.584-2.046l-3.508-6.139c-0.39-0.779-1.007-0.974-1.851-0.585c-2.534,1.494-5.262,2.241-8.185,2.241
		c-3.573,0-6.496-1.218-8.769-3.653c-2.274-2.436-3.41-5.44-3.41-9.013v-5.067c0-3.573,1.137-6.56,3.41-8.963
		c2.273-2.404,5.197-3.606,8.769-3.606c3.053,0,5.814,0.747,8.282,2.241c0.779,0.455,1.397,0.292,1.851-0.487l3.703-6.138
		c0.454-0.779,0.292-1.429-0.487-1.949C507.075,21.874,502.625,20.64,497.689,20.64z"/>
	<path id="XMLID_97_" fill="#FFCC04" d="M558.702,21.533h-35.661c-0.909,0-1.364,0.455-1.364,1.364v5.944
		c0,0.325,0.13,0.633,0.39,0.926c0.26,0.292,0.585,0.438,0.974,0.438h18.61c0.455,0,0.779,0.195,0.974,0.585
		c0.195,0.39,0.162,0.747-0.098,1.072l-23.579,34.785c-0.325,0.454-0.487,0.941-0.487,1.461V68.4c0,0.909,0.487,1.365,1.462,1.365
		h38.097c0.909,0,1.364-0.455,1.364-1.365v-5.943c0-0.909-0.455-1.364-1.364-1.364h-21.143c-0.39,0-0.682-0.179-0.877-0.536
		c-0.195-0.357-0.195-0.699,0-1.023l23.677-34.881c0.259-0.455,0.39-0.91,0.39-1.365v-0.39
		C560.066,21.988,559.612,21.533,558.702,21.533z"/>
	<path id="XMLID_96_" fill="#FFCC04" d="M276.079,92.69V84.7c0-0.909-0.455-1.364-1.364-1.364H1.365C0.455,83.335,0,83.79,0,84.7
		l0,7.99c0,0.909,0.455,1.364,1.365,1.364h273.35C275.624,94.053,276.079,93.599,276.079,92.69z"/>
</g>
</svg>
