<?xml version="1.0" encoding="UTF-8" standalone="no"?>
<svg width="190px" height="49px" viewBox="0 0 190 49" version="1.1" xmlns="http://www.w3.org/2000/svg" xmlns:xlink="http://www.w3.org/1999/xlink">
    <!-- Generator: Sketch 41.2 (35397) - http://www.bohemiancoding.com/sketch -->
    <title>logo</title>
    <desc>Created with Sketch.</desc>
    <defs>
        <polygon id="path-1" points="189.372747 48.8185744 0 48.8185744 0 0 189.372747 8.92733181e-15"></polygon>
    </defs>
    <g id="Design" stroke="none" stroke-width="1" fill="none" fill-rule="evenodd">
        <g id="microsite" transform="translate(-136.000000, -138.000000)">
            <g id="landing" transform="translate(136.000000, 138.000000)">
                <g id="logo">
                    <mask id="mask-2" fill="white">
                        <use xlink:href="#path-1"></use>
                    </mask>
                    <g id="Clip-2"></g>
                    <path d="M24.6085467,0 L24.6085467,11.4509231 L24.6085467,11.4509231 C17.3923467,11.4509231 11.54288,17.2542821 11.54288,24.4107949 C11.54288,31.5673077 17.3923467,37.3694103 24.6085467,37.3694103 L24.6085467,37.3694103 L24.6085467,48.8190769 L24.6085467,48.8190769 C11.0172133,48.8190769 -0.000253333334,37.8908205 -0.000253333334,24.4107949 C-0.000253333334,10.9307692 11.0172133,0 24.6085467,0 Z M24.6085467,48.8190769 L24.6085467,37.3694103 C31.8247467,37.3694103 37.6742133,31.5673077 37.6742133,24.4107949 C37.6742133,17.2542821 31.8247467,11.4521795 24.6085467,11.4509231 L24.6085467,0 C38.1986133,0 49.2186133,10.9307692 49.2186133,24.4107949 C49.2186133,37.8908205 38.1986133,48.8178205 24.6085467,48.8190769 L24.6085467,48.8190769 Z M121.20708,0.933512821 L121.20708,24.5741282 L114.61788,37.3455385 L121.20708,37.3455385 L121.20708,48.0488974 L96.7629467,48.0488974 L121.20708,0.933512821 Z M54.67288,48.0488974 L91.3074133,48.0488974 L91.3074133,37.3455385 L67.1698133,37.3455385 L67.1698133,0.771435897 L54.67288,0.771435897 L54.67288,48.0488974 Z M121.20708,48.0488974 L121.20708,37.3455385 L127.79628,37.3455385 L121.291947,24.4120513 L121.20708,24.5741282 L121.20708,0.933512821 L121.291947,0.771435897 L145.822213,48.0488974 L121.20708,48.0488974 Z M170.441147,0.889538462 L170.441147,11.2599487 L163.58848,11.2599487 L163.58848,23.0877949 L170.441147,23.0877949 L170.441147,33.3803077 L163.58848,33.3803077 L163.58848,48.0488974 L151.27648,48.0488974 L151.27648,0.889538462 L170.441147,0.889538462 Z M170.441147,33.3803077 L170.441147,23.0877949 L170.78948,23.0877949 C175.272213,23.0877949 177.293813,20.7068974 177.293813,17.1738718 C177.293813,13.5642051 175.279813,11.2599487 170.78948,11.2599487 L170.441147,11.2599487 L170.441147,0.889538462 L172.105547,0.889538462 C182.397213,0.889538462 189.372747,6.65017949 189.372747,17.1738718 C189.372747,27.6196667 182.404813,33.3803077 172.105547,33.3803077 L170.441147,33.3803077 Z" id="Fill-1" fill="#151515" mask="url(#mask-2)"></path>
                </g>
            </g>
        </g>
    </g>
</svg>