<svg viewBox="0 0 160 25" style="background-color:#ffffff00" xmlns="http://www.w3.org/2000/svg" width="160" height="25"><g fill="#96f032"><path d="M123.507 18.749l-3.482-7.607h-4.14l6.435 12.916h2.373l6.41-12.916h-4.14l-3.456 7.607zM138.62 10.693c-2.04 0-3.763.654-5.17 1.962-1.407 1.31-2.11 2.953-2.11 4.932 0 1.98.703 3.624 2.11 4.932 1.407 1.308 3.13 1.961 5.17 1.961 2.057 0 3.785-.649 5.183-1.948 1.398-1.3 2.097-2.948 2.097-4.945 0-1.98-.704-3.623-2.11-4.932-1.407-1.308-3.13-1.962-5.17-1.962zm2.487 9.475c-.68.71-1.51 1.064-2.487 1.064-.995 0-1.828-.35-2.5-1.051-.672-.7-1.008-1.565-1.008-2.594 0-1.011.34-1.871 1.02-2.58.682-.71 1.51-1.065 2.488-1.065.995 0 1.828.35 2.5 1.05.671.702 1.008 1.566 1.008 2.595 0 1.011-.34 1.872-1.021 2.58zM92.39 11.142c.446.896.673 1.89.673 2.985 0 1.81-.624 3.357-1.873 4.639-1.248 1.283-2.769 1.925-4.562 1.925-1.812 0-3.337-.637-4.577-1.912-1.24-1.273-1.859-2.824-1.859-4.652 0-1.828.62-3.379 1.86-4.652 1.236-1.271 2.757-1.908 4.563-1.91v3.577l5.734-5.34L86.615.447v3.26c-2.984.003-5.494.996-7.53 2.98-2.041 1.987-3.06 4.467-3.06 7.439 0 2.99 1.015 5.473 3.046 7.452 2.03 1.979 4.55 2.968 7.557 2.968 3.006 0 5.52-.994 7.543-2.981 2.021-1.988 3.032-4.467 3.032-7.44 0-1.058-.133-2.051-.385-2.984h-4.427zM110.749 11.94c-1.222-.826-2.64-1.247-4.261-1.247-2.04 0-3.764.654-5.17 1.962-1.407 1.31-2.11 2.953-2.11 4.932 0 1.98.703 3.624 2.11 4.932 1.406 1.308 3.13 1.961 5.17 1.961 1.627 0 3.046-.413 4.26-1.226v.76h3.02V4.159h-3.02v7.782zm-1.775 8.228c-.68.71-1.51 1.064-2.486 1.064-.995 0-1.829-.35-2.5-1.051-.673-.7-1.008-1.565-1.008-2.594 0-1.011.34-1.871 1.02-2.58.681-.71 1.51-1.065 2.488-1.065.995 0 1.828.35 2.5 1.05.67.702 1.007 1.566 1.007 2.595 0 1.011-.34 1.872-1.02 2.58zM159.456 11.142h-11.657v3.143h5.486l-5.502 8.22v1.553h11.462v-3.17h-6.383l6.594-9.746z"/></g><g fill="#fff"><path d="M9.328 17.666L4.515 4.196H.419l7.453 19.862h2.838l7.526-19.862H14.14l-4.813 13.47zM70.162 11.142v.798c-1.222-.826-2.64-1.247-4.261-1.247-2.04 0-3.764.654-5.17 1.962-1.407 1.31-2.11 2.953-2.11 4.932 0 1.98.703 3.624 2.11 4.932 1.406 1.308 3.13 1.961 5.17 1.961 1.628 0 3.046-.413 4.26-1.226v.76h3.02V11.143h-3.02zm-1.774 9.026c-.681.71-1.51 1.064-2.487 1.064-.995 0-1.829-.35-2.5-1.051-.673-.7-1.008-1.565-1.008-2.594 0-1.011.34-1.871 1.02-2.58.681-.71 1.51-1.065 2.488-1.065.995 0 1.828.35 2.5 1.05.67.702 1.007 1.566 1.007 2.595 0 1.011-.34 1.872-1.02 2.58zM43.258 12.655c-1.407-1.308-3.13-1.962-5.17-1.962s-3.763.654-5.169 1.962c-1.407 1.31-2.11 2.953-2.11 4.932 0 1.98.703 3.624 2.11 4.932 1.407 1.308 3.13 1.961 5.17 1.961 2.057 0 3.785-.649 5.182-1.948a6.479 6.479 0 0 0 1.45-1.96H40.11a3.291 3.291 0 0 1-2.02.66c-.784 0-1.464-.226-2.047-.66a3.59 3.59 0 0 1-.454-.391 3.516 3.516 0 0 1-.956-1.987h10.709a7.19 7.19 0 0 0-.191-2.377c-.304-1.21-.929-2.266-1.892-3.162zm-8.233 3.162c.156-.286.337-.561.577-.81.68-.71 1.509-1.065 2.487-1.065.995 0 1.828.35 2.5 1.05.24.253.423.532.577.825h-6.14zM25.385 16.04c-.124-.037-.24-.077-.371-.111-1.16-.353-1.793-.565-1.899-.635-.351-.229-.527-.53-.527-.9 0-.389.18-.683.542-.887a2.312 2.312 0 0 1 1.152-.304c.747 0 1.405.176 1.984.513l.97-2.561c-.906-.419-1.927-.632-3.062-.642h-.147c-.226.002-.443.023-.66.043-1.092.104-2.05.433-2.86 1.012-1.092.776-1.638 1.836-1.638 3.177 0 .83.194 1.51.582 2.039.305.412.755.756 1.318 1.046.35.18.736.343 1.186.475 1.174.345 1.85.561 2.027.65.092.044.164.097.242.147.448.285.685.647.685 1.097 0 .441-.186.776-.557 1.006-.307.19-.658.296-1.049.329-.082.007-.163.015-.25.015a4.516 4.516 0 0 1-1.895-.43 5.309 5.309 0 0 1-1.272-.819l-1.064 2.98c.4.27.831.5 1.3.686.65.256 1.343.417 2.077.482.247.021.5.032.758.032 1.582 0 2.901-.38 3.956-1.138 1.178-.847 1.767-2.011 1.767-3.494 0-1.095-.369-1.985-1.107-2.674-.513-.483-1.25-.857-2.188-1.134zM25.118 9.25l1.93-5.092h-2.02L23.775 7.67l-1.253-3.51h-2.068l1.91 5.091h2.754z"/></g><path d="M58.243 11.27H46.586v3.144h5.486l-5.502 8.22v1.553h11.462v-3.17h-6.383l6.594-9.746z" fill="#fff"/></svg>